<svg id="diagram" xmlns="http://www.w3.org/2000/svg" width="1440" height="1168" viewBox="0 0 1440 1168" role="group" aria-label="Learning loop: Specialist agents. A closed learning loop."><title>ShopSteward / Learning loop / Specialist agents. A closed learning loop.</title><defs><pattern id="grid" width="24" height="24" patternUnits="userSpaceOnUse"><circle cx="1" cy="1" r=".65" fill="#667d99" opacity=".15"/></pattern><linearGradient id="back" x2="1" y2="1"><stop stop-color="#101b28"/><stop offset="1" stop-color="#101522"/></linearGradient><filter id="glow" x="-20%" y="-20%" width="140%" height="140%"><feGaussianBlur stdDeviation="3"/></filter><marker id="arrow-current" viewBox="0 0 10 10" refX="9" refY="5" markerWidth="6" markerHeight="6" orient="auto"><path d="M1 1L9 5L1 9" fill="none" stroke="#65d6e8" stroke-width="1.5"/></marker><marker id="arrow-experiment" viewBox="0 0 10 10" refX="9" refY="5" markerWidth="6" markerHeight="6" orient="auto"><path d="M1 1L9 5L1 9" fill="none" stroke="#efbd74" stroke-width="1.5"/></marker><marker id="arrow-future" viewBox="0 0 10 10" refX="9" refY="5" markerWidth="6" markerHeight="6" orient="auto"><path d="M1 1L9 5L1 9" fill="none" stroke="#b5a0ff" stroke-width="1.5"/></marker></defs><style>text{font-family:'Segoe UI',Arial,sans-serif}.mono{font-family:Consolas,monospace}.node{cursor:pointer}.node .card{transition:stroke-opacity .2s,fill .2s}.node:hover .card,.node:focus .card{stroke-opacity:1;stroke-width:1.8}.node:focus{outline:none}.edge{transition:opacity .25s}.edge-label{paint-order:stroke;stroke:#101925;stroke-width:5;stroke-linejoin:round}.enter{animation:none}.flow{animation:none}@keyframes reveal{from{opacity:0}to{opacity:1}}@keyframes flow{to{stroke-dashoffset:-110}}@media(prefers-reduced-motion:reduce){.enter,.flow{animation:none}}</style><rect width="1440" height="1090" fill="url(#back)"/><rect width="1440" height="1090" fill="url(#grid)"/><text x="30" y="37" fill="#7d93af" font-size="11" class="mono" letter-spacing="1.1">01 / DATA &amp; ENVIRONMENT</text><line x1="30" x2="300" y1="55" y2="55" stroke="#7593b2" stroke-opacity=".16"/><text x="400" y="37" fill="#7d93af" font-size="11" class="mono" letter-spacing="1.1">02 / EXECUTION &amp; TRAINING</text><line x1="400" x2="670" y1="55" y2="55" stroke="#7593b2" stroke-opacity=".16"/><text x="770" y="37" fill="#7d93af" font-size="11" class="mono" letter-spacing="1.1">03 / EVALUATION &amp; SELECTION</text><line x1="770" x2="1040" y1="55" y2="55" stroke="#7593b2" stroke-opacity=".16"/><text x="1140" y="37" fill="#7d93af" font-size="11" class="mono" letter-spacing="1.1">04 / SERVING &amp; FEEDBACK</text><line x1="1140" x2="1410" y1="55" y2="55" stroke="#7593b2" stroke-opacity=".16"/><rect x="18" y="468" width="1404" height="180" rx="12" fill="#b5a0ff" fill-opacity=".04"/><text x="35" y="492" fill="#b5a0ff" font-size="10" class="mono" letter-spacing=".8">NEXT / DATA + TARGET-MODEL BASELINE + SFT + SERVING</text><rect x="18" y="824" width="1404" height="232" rx="12" fill="#b5a0ff" fill-opacity=".04" stroke="#b5a0ff" stroke-opacity=".17" stroke-dasharray="6 6"/><text x="35" y="850" fill="#b5a0ff" font-size="10" class="mono" letter-spacing=".8">RESEARCH / VERIFIABLE FEEDBACK → POLICY OPTIMIZATION</text><g class="edge " data-a="spec" data-b="baselines"><path class="" d="M300,148 L350,148 L350,148 L400,148" fill="none" stroke="#efbd74" stroke-opacity=".35" stroke-width="1.4"  marker-end="url(#arrow-experiment)"/><text class="edge-label" x="350" y="140" text-anchor="middle" font-size="10" fill="#efbd74" fill-opacity=".72">cases / gold</text></g><g class="edge " data-a="baselines" data-b="failures"><path class="" d="M670,148 L720,148 L720,148 L770,148" fill="none" stroke="#efbd74" stroke-opacity=".35" stroke-width="1.4"  marker-end="url(#arrow-experiment)"/><text class="edge-label" x="720" y="140" text-anchor="middle" font-size="10" fill="#efbd74" fill-opacity=".72">scores</text></g><g class="edge " data-a="failures" data-b="evaluation"><path class="" d="M1040,148 L1090,148 L1090,148 L1140,148" fill="none" stroke="#efbd74" stroke-opacity=".35" stroke-width="1.4"  marker-end="url(#arrow-experiment)"/><text class="edge-label" x="1090" y="140" text-anchor="middle" font-size="10" fill="#efbd74" fill-opacity=".72">report</text></g><g class="edge " data-a="sim" data-b="baselines"><path class="" d="M300,333 L341,333 Q350,333 350,324 L350,157 Q350,148 359,148 L400,148" fill="none" stroke="#65d6e8" stroke-opacity=".35" stroke-width="1.4"  marker-end="url(#arrow-current)"/><text class="edge-label" x="350" y="232.5" text-anchor="middle" font-size="10" fill="#65d6e8" fill-opacity=".72">fixtures</text></g><g class="edge enter" data-a="collection" data-b="sft"><path class="flow" d="M300,558 L350,558 L350,558 L400,558" fill="none" stroke="#b5a0ff" stroke-opacity=".35" stroke-width="1.4" stroke-dasharray="5 6" marker-end="url(#arrow-future)"/><text class="edge-label" x="350" y="550" text-anchor="middle" font-size="10" fill="#b5a0ff" fill-opacity=".72">targets</text></g><g class="edge enter" data-a="sft" data-b="heldout"><path class="flow" d="M670,558 L720,558 L720,558 L770,558" fill="none" stroke="#b5a0ff" stroke-opacity=".35" stroke-width="1.4" stroke-dasharray="5 6" marker-end="url(#arrow-future)"/><text class="edge-label" x="720" y="550" text-anchor="middle" font-size="10" fill="#b5a0ff" fill-opacity=".72">candidate</text></g><g class="edge enter" data-a="heldout" data-b="serve"><path class="flow" d="M1040,558 L1090,558 L1090,558 L1140,558" fill="none" stroke="#b5a0ff" stroke-opacity=".35" stroke-width="1.4" stroke-dasharray="5 6" marker-end="url(#arrow-future)"/><text class="edge-label" x="1090" y="550" text-anchor="middle" font-size="10" fill="#b5a0ff" fill-opacity=".72">release</text></g><g class="edge enter" data-a="failures" data-b="collection"><path class="flow" d="M905,196 L905,631 Q905,640 896,640 L174,640 Q165,640 165,631 L165,606" fill="none" stroke="#b5a0ff" stroke-opacity=".35" stroke-width="1.4" stroke-dasharray="5 6" marker-end="url(#arrow-future)"/><text class="edge-label" x="535" y="632" text-anchor="middle" font-size="10" fill="#b5a0ff" fill-opacity=".72">data allocation</text></g><g class="edge enter" data-a="sim" data-b="collection"><path class="flow" d="M165,381 L165,510" fill="none" stroke="#b5a0ff" stroke-opacity=".35" stroke-width="1.4" stroke-dasharray="5 6" marker-end="url(#arrow-future)"/><text class="edge-label" x="177" y="445.5" text-anchor="middle" font-size="10" fill="#b5a0ff" fill-opacity=".72">new scenarios</text></g><g class="edge enter" data-a="sim" data-b="rollout"><path class="flow" d="M30,333 L17,333 Q8,333 8,342 L8,919 Q8,928 17,928 L30,928" fill="none" stroke="#b5a0ff" stroke-opacity=".35" stroke-width="1.4" stroke-dasharray="5 6" marker-end="url(#arrow-future)"/><text class="edge-label" x="8" y="624.5" text-anchor="middle" font-size="10" fill="#b5a0ff" fill-opacity=".72">adapt</text></g><g class="edge enter" data-a="rollout" data-b="reward"><path class="flow" d="M300,928 L350,928 L350,928 L400,928" fill="none" stroke="#b5a0ff" stroke-opacity=".35" stroke-width="1.4" stroke-dasharray="5 6" marker-end="url(#arrow-future)"/><text class="edge-label" x="350" y="920" text-anchor="middle" font-size="10" fill="#b5a0ff" fill-opacity=".72">trajectories</text></g><g class="edge enter" data-a="reward" data-b="optimize"><path class="flow" d="M670,928 L720,928 L720,928 L770,928" fill="none" stroke="#b5a0ff" stroke-opacity=".35" stroke-width="1.4" stroke-dasharray="5 6" marker-end="url(#arrow-future)"/><text class="edge-label" x="720" y="920" text-anchor="middle" font-size="10" fill="#b5a0ff" fill-opacity=".72">reward</text></g><g class="edge enter" data-a="optimize" data-b="heldout"><path class="flow" d="M905,880 L905,606" fill="none" stroke="#b5a0ff" stroke-opacity=".35" stroke-width="1.4" stroke-dasharray="5 6" marker-end="url(#arrow-future)"/><text class="edge-label" x="917" y="743" text-anchor="middle" font-size="10" fill="#b5a0ff" fill-opacity=".72">re-evaluate</text></g><g class="edge enter" data-a="serve" data-b="output"><path class="flow" d="M1275,606 L1275,880" fill="none" stroke="#b5a0ff" stroke-opacity=".35" stroke-width="1.4" stroke-dasharray="5 6" marker-end="url(#arrow-future)"/><text class="edge-label" x="1287" y="743" text-anchor="middle" font-size="10" fill="#b5a0ff" fill-opacity=".72">feedback</text></g><g class="edge enter" data-a="output" data-b="rollout"><path class="flow" d="M1275,976 L1275,1001 Q1275,1010 1266,1010 L174,1010 Q165,1010 165,1001 L165,976" fill="none" stroke="#b5a0ff" stroke-opacity=".35" stroke-width="1.4" stroke-dasharray="5 6" marker-end="url(#arrow-future)"/><text class="edge-label" x="720" y="1002" text-anchor="middle" font-size="10" fill="#b5a0ff" fill-opacity=".72">next rollout</text></g><g class="edge enter" data-a="serve" data-b="rollout"><path class="flow" d="M1275,510 L1275,485 Q1275,476 1266,476 L174,476 Q165,476 165,485 L165,880" fill="none" stroke="#b5a0ff" stroke-opacity=".35" stroke-width="1.4" stroke-dasharray="5 6" marker-end="url(#arrow-future)"/><text class="edge-label" x="720" y="468" text-anchor="middle" font-size="10" fill="#b5a0ff" fill-opacity=".72">candidate policy</text></g><g class="node " data-id="spec" tabindex="0" role="button" aria-label="Task contracts &amp; cases, Experimental, view details" transform="translate(30,100)" style="animation-delay:0ms"><title>Task contracts &amp; cases / Experimental</title><rect x="2" y="5" width="270" height="96" rx="9" fill="#000" fill-opacity=".12"/><rect class="card" width="270" height="96" rx="9" fill="#27221d" stroke="#efbd74" stroke-opacity=".26" /><path d="M0 22V42" stroke="#efbd74" stroke-width="2"/><circle cx="255" cy="17" r="2" fill="#efbd74" opacity=".6"/><text x="17" y="30" fill="#e0eaf7" font-size="16" font-weight="550">Task contracts &amp; cases</text><text x="17" y="55" fill="#efbd74" font-size="11.5" fill-opacity=".9">EpisodeSpec / PolicyContext</text><text x="17" y="79" fill="#869bb4" font-size="11">Intent · history · tools · gold</text></g><g class="node " data-id="baselines" tabindex="0" role="button" aria-label="B0 / B1 evaluation, Experimental, view details" transform="translate(400,100)" style="animation-delay:0ms"><title>B0 / B1 evaluation / Experimental</title><rect x="2" y="5" width="270" height="96" rx="9" fill="#000" fill-opacity=".12"/><rect class="card" width="270" height="96" rx="9" fill="#27221d" stroke="#efbd74" stroke-opacity=".26" /><path d="M0 22V42" stroke="#efbd74" stroke-width="2"/><circle cx="255" cy="17" r="2" fill="#efbd74" opacity=".6"/><text x="17" y="30" fill="#e0eaf7" font-size="16" font-weight="550">B0 / B1 evaluation</text><text x="17" y="55" fill="#efbd74" font-size="11.5" fill-opacity=".9">Rules / API model / runner</text><text x="17" y="79" fill="#869bb4" font-size="11">Decision scoring + actual execution</text></g><g class="node " data-id="failures" tabindex="0" role="button" aria-label="Failure analysis, Experimental, view details" transform="translate(770,100)" style="animation-delay:0ms"><title>Failure analysis / Experimental</title><rect x="2" y="5" width="270" height="96" rx="9" fill="#000" fill-opacity=".12"/><rect class="card" width="270" height="96" rx="9" fill="#27221d" stroke="#efbd74" stroke-opacity=".26" /><path d="M0 22V42" stroke="#efbd74" stroke-width="2"/><circle cx="255" cy="17" r="2" fill="#efbd74" opacity=".6"/><text x="17" y="30" fill="#e0eaf7" font-size="16" font-weight="550">Failure analysis</text><text x="17" y="55" fill="#efbd74" font-size="11.5" fill-opacity=".9">Per-case scores / calls / tokens</text><text x="17" y="79" fill="#869bb4" font-size="11">Diagnose → repair → re-evaluate</text></g><g class="node " data-id="evaluation" tabindex="0" role="button" aria-label="Task policy &amp; evaluation, Experimental, view details" transform="translate(1140,100)" style="animation-delay:0ms"><title>Task policy &amp; evaluation / Experimental</title><rect x="2" y="5" width="270" height="96" rx="9" fill="#000" fill-opacity=".12"/><rect class="card" width="270" height="96" rx="9" fill="#27221d" stroke="#efbd74" stroke-opacity=".26" /><path d="M0 22V42" stroke="#efbd74" stroke-width="2"/><circle cx="255" cy="17" r="2" fill="#efbd74" opacity=".6"/><text x="17" y="30" fill="#e0eaf7" font-size="16" font-weight="550">Task policy &amp; evaluation</text><text x="17" y="55" fill="#efbd74" font-size="11.5" fill-opacity=".9">Five actions / real tool fixtures</text><text x="17" y="79" fill="#869bb4" font-size="11">200 dev · 140 core · 60 diagnostics</text></g><g class="node " data-id="sim" tabindex="0" role="button" aria-label="Business simulator, Implemented, view details" transform="translate(30,285)" style="animation-delay:0ms"><title>Business simulator / Implemented</title><rect x="2" y="5" width="270" height="96" rx="9" fill="#000" fill-opacity=".12"/><rect class="card" width="270" height="96" rx="9" fill="#111f2c" stroke="#65d6e8" stroke-opacity=".26" /><path d="M0 22V42" stroke="#65d6e8" stroke-width="2"/><circle cx="255" cy="17" r="2" fill="#65d6e8" opacity=".6"/><text x="17" y="30" fill="#e0eaf7" font-size="16" font-weight="550">Business simulator</text><text x="17" y="55" fill="#65d6e8" font-size="11.5" fill-opacity=".9">SC01 / SANDBOX / HTTP</text><text x="17" y="79" fill="#869bb4" font-size="11">Sales · arrivals · settlements</text></g><g class="node enter" data-id="collection" tabindex="0" role="button" aria-label="Verified training data, Proposed, view details" transform="translate(30,510)" style="animation-delay:60ms"><title>Verified training data / Proposed</title><rect x="2" y="5" width="270" height="96" rx="9" fill="#000" fill-opacity=".12"/><rect class="card" width="270" height="96" rx="9" fill="#201e34" stroke="#b5a0ff" stroke-opacity=".44" stroke-dasharray="5 4"/><path d="M0 22V42" stroke="#b5a0ff" stroke-width="2"/><circle cx="255" cy="17" r="2" fill="#b5a0ff" opacity=".6"/><text x="17" y="30" fill="#e0eaf7" font-size="16" font-weight="550">Verified training data</text><text x="17" y="55" fill="#b5a0ff" font-size="11.5" fill-opacity=".9">New seeds / candidates / tool checks</text><text x="17" y="79" fill="#869bb4" font-size="11">20-episode pilot → 200 episodes</text></g><g class="node enter" data-id="sft" tabindex="0" role="button" aria-label="Projection &amp; SFT, Proposed, view details" transform="translate(400,510)" style="animation-delay:72ms"><title>Projection &amp; SFT / Proposed</title><rect x="2" y="5" width="270" height="96" rx="9" fill="#000" fill-opacity=".12"/><rect class="card" width="270" height="96" rx="9" fill="#201e34" stroke="#b5a0ff" stroke-opacity=".44" stroke-dasharray="5 4"/><path d="M0 22V42" stroke="#b5a0ff" stroke-width="2"/><circle cx="255" cy="17" r="2" fill="#b5a0ff" opacity=".6"/><text x="17" y="30" fill="#e0eaf7" font-size="16" font-weight="550">Projection &amp; SFT</text><text x="17" y="55" fill="#b5a0ff" font-size="11.5" fill-opacity=".9">Assistant-only loss / LoRA</text><text x="17" y="79" fill="#869bb4" font-size="11">Actions · parameters · clarification</text></g><g class="node enter" data-id="heldout" tabindex="0" role="button" aria-label="Evaluate &amp; release, Proposed, view details" transform="translate(770,510)" style="animation-delay:84ms"><title>Evaluate &amp; release / Proposed</title><rect x="2" y="5" width="270" height="96" rx="9" fill="#000" fill-opacity=".12"/><rect class="card" width="270" height="96" rx="9" fill="#201e34" stroke="#b5a0ff" stroke-opacity=".44" stroke-dasharray="5 4"/><path d="M0 22V42" stroke="#b5a0ff" stroke-width="2"/><circle cx="255" cy="17" r="2" fill="#b5a0ff" opacity=".6"/><text x="17" y="30" fill="#e0eaf7" font-size="16" font-weight="550">Evaluate &amp; release</text><text x="17" y="55" fill="#b5a0ff" font-size="11.5" fill-opacity=".9">Base / SFT / RL / agent ablations</text><text x="17" y="79" fill="#869bb4" font-size="11">Independent test target: 300 tasks</text></g><g class="node enter" data-id="serve" tabindex="0" role="button" aria-label="Task-model serving, Proposed, view details" transform="translate(1140,510)" style="animation-delay:96ms"><title>Task-model serving / Proposed</title><rect x="2" y="5" width="270" height="96" rx="9" fill="#000" fill-opacity=".12"/><rect class="card" width="270" height="96" rx="9" fill="#201e34" stroke="#b5a0ff" stroke-opacity=".44" stroke-dasharray="5 4"/><path d="M0 22V42" stroke="#b5a0ff" stroke-width="2"/><circle cx="255" cy="17" r="2" fill="#b5a0ff" opacity=".6"/><text x="17" y="30" fill="#e0eaf7" font-size="16" font-weight="550">Task-model serving</text><text x="17" y="55" fill="#b5a0ff" font-size="11.5" fill-opacity=".9">LoRA artifacts / vLLM candidate</text><text x="17" y="79" fill="#869bb4" font-size="11">Specialized policy + general model</text></g><g class="node enter" data-id="rollout" tabindex="0" role="button" aria-label="Environment &amp; rollouts, Proposed, view details" transform="translate(30,880)" style="animation-delay:108ms"><title>Environment &amp; rollouts / Proposed</title><rect x="2" y="5" width="270" height="96" rx="9" fill="#000" fill-opacity=".12"/><rect class="card" width="270" height="96" rx="9" fill="#201e34" stroke="#b5a0ff" stroke-opacity=".44" stroke-dasharray="5 4"/><path d="M0 22V42" stroke="#b5a0ff" stroke-width="2"/><circle cx="255" cy="17" r="2" fill="#b5a0ff" opacity=".6"/><text x="17" y="30" fill="#e0eaf7" font-size="16" font-weight="550">Environment &amp; rollouts</text><text x="17" y="55" fill="#b5a0ff" font-size="11.5" fill-opacity=".9">State → action → observation</text><text x="17" y="79" fill="#869bb4" font-size="11">Simulator adapter + tool trajectories</text></g><g class="node enter" data-id="reward" tabindex="0" role="button" aria-label="Verifiable rewards, Proposed, view details" transform="translate(400,880)" style="animation-delay:120ms"><title>Verifiable rewards / Proposed</title><rect x="2" y="5" width="270" height="96" rx="9" fill="#000" fill-opacity=".12"/><rect class="card" width="270" height="96" rx="9" fill="#201e34" stroke="#b5a0ff" stroke-opacity=".44" stroke-dasharray="5 4"/><path d="M0 22V42" stroke="#b5a0ff" stroke-width="2"/><circle cx="255" cy="17" r="2" fill="#b5a0ff" opacity=".6"/><text x="17" y="30" fill="#e0eaf7" font-size="16" font-weight="550">Verifiable rewards</text><text x="17" y="55" fill="#b5a0ff" font-size="11.5" fill-opacity=".9">Task outcome / arguments / overhead</text><text x="17" y="79" fill="#869bb4" font-size="11">Business rewards: later research</text></g><g class="node enter" data-id="optimize" tabindex="0" role="button" aria-label="Policy updates &amp; ablations, Proposed, view details" transform="translate(770,880)" style="animation-delay:132ms"><title>Policy updates &amp; ablations / Proposed</title><rect x="2" y="5" width="270" height="96" rx="9" fill="#000" fill-opacity=".12"/><rect class="card" width="270" height="96" rx="9" fill="#201e34" stroke="#b5a0ff" stroke-opacity=".44" stroke-dasharray="5 4"/><path d="M0 22V42" stroke="#b5a0ff" stroke-width="2"/><circle cx="255" cy="17" r="2" fill="#b5a0ff" opacity=".6"/><text x="17" y="30" fill="#e0eaf7" font-size="16" font-weight="550">Policy updates &amp; ablations</text><text x="17" y="55" fill="#b5a0ff" font-size="11.5" fill-opacity=".9">RL candidates: GRPO / PPO</text><text x="17" y="79" fill="#869bb4" font-size="11">Compare with SFT &amp; rule baselines</text></g><g class="node enter" data-id="output" tabindex="0" role="button" aria-label="Outcomes &amp; feedback, Implemented, view details" transform="translate(1140,880)" style="animation-delay:144ms"><title>Outcomes &amp; feedback / Implemented</title><rect x="2" y="5" width="270" height="96" rx="9" fill="#000" fill-opacity=".12"/><rect class="card" width="270" height="96" rx="9" fill="#111f2c" stroke="#65d6e8" stroke-opacity=".26" /><path d="M0 22V42" stroke="#65d6e8" stroke-width="2"/><circle cx="255" cy="17" r="2" fill="#65d6e8" opacity=".6"/><text x="17" y="30" fill="#e0eaf7" font-size="16" font-weight="550">Outcomes &amp; feedback</text><text x="17" y="55" fill="#65d6e8" font-size="11.5" fill-opacity=".9">Progress / citations / plans</text><text x="17" y="79" fill="#869bb4" font-size="11">Event replay · SSE · polling</text></g><rect y="1090" width="1440" height="78" fill="#0b121d"/><text x="30" y="1120" fill="#d8e7f5" font-size="15">ShopSteward / Learning loop / Specialist agents. A closed learning loop.</text><text x="30" y="1145" fill="#869bb4" font-size="12">Cyan: implemented | Amber: experimental | Violet / dashed: proposed · 26 Sep 2026</text></svg>