<svg id="diagram" xmlns="http://www.w3.org/2000/svg" width="1440" height="1190" viewBox="0 0 1440 1190" role="group" aria-label="ShopSteward technical modules"><title>ShopSteward / Technical modules, technologies and responsibilities</title><defs><pattern id="dots" width="24" height="24" patternUnits="userSpaceOnUse"><circle cx="1" cy="1" r=".7" fill="#7494b7" opacity=".12"/></pattern><marker id="arrow-current" viewBox="0 0 10 10" refX="9" refY="5" markerWidth="6" markerHeight="6" orient="auto-start-reverse"><path d="M1 1L9 5L1 9" fill="none" stroke="#68d9e5" stroke-width="1.5"/></marker><marker id="arrow-experiment" viewBox="0 0 10 10" refX="9" refY="5" markerWidth="6" markerHeight="6" orient="auto-start-reverse"><path d="M1 1L9 5L1 9" fill="none" stroke="#efbd74" stroke-width="1.5"/></marker><marker id="arrow-future" viewBox="0 0 10 10" refX="9" refY="5" markerWidth="6" markerHeight="6" orient="auto-start-reverse"><path d="M1 1L9 5L1 9" fill="none" stroke="#b9a4fa" stroke-width="1.5"/></marker></defs><style>text{font-family:'Segoe UI',Arial,sans-serif}.mono{font-family:Consolas,monospace}.module{cursor:pointer;transition:opacity .2s}.module:hover .outline,.module:focus .outline{stroke-opacity:1;stroke-width:2}.module:focus{outline:none}.edge-label{paint-order:stroke;stroke:#0e1725;stroke-width:5;stroke-linejoin:round}</style><rect width="1440" height="1120" fill="#0e1725"/><rect width="1440" height="1120" fill="url(#dots)"/><text x="28" y="30" class="mono" font-size="12" letter-spacing="1.3" fill="#8ec3ce">01 / APPLICATION &amp; AGENT CONTROL</text><text x="28" y="397" class="mono" font-size="12" letter-spacing="1.3" fill="#8ec3ce">02 / KNOWLEDGE, FORECASTING &amp; SIMULATION</text><text x="28" y="773" class="mono" font-size="12" letter-spacing="1.3" fill="#b5a1df">03 / EVALUATION &amp; PROPOSED EXTENSIONS</text><path d="M210 120V75H1150V120" fill="none" stroke="#68d9e5" stroke-opacity=".55" stroke-width="1.7" marker-start="url(#arrow-current)" marker-end="url(#arrow-current)"/><text x="690" y="64" text-anchor="middle" class="edge-label" font-size="12" fill="#8db8c8">User requests, approvals and results / Nitro → business API</text><path d="M830 245H910" fill="none" stroke="#68d9e5" stroke-opacity=".65" stroke-width="1.7" marker-start="url(#arrow-current)" marker-end="url(#arrow-current)"/><text x="870" y="222" text-anchor="middle" class="edge-label" font-size="10" fill="#8db8c8">Tool HTTP</text><path d="M1150 355V428H210V470M650 428V470M1150 428V470" fill="none" stroke="#68d9e5" stroke-opacity=".45" stroke-width="1.7"/><path d="M210 449V470M650 449V470M1150 449V470" stroke="#68d9e5" stroke-opacity=".55" marker-end="url(#arrow-current)"/><text x="830" y="418" text-anchor="middle" class="edge-label" font-size="12" fill="#8db8c8">Backend integrations / forecast, retrieval and operating events</text><path d="M930 830V725H1150V700" fill="none" stroke="#b9a4fa" stroke-opacity=".52" stroke-dasharray="5 5" stroke-width="1.6" marker-start="url(#arrow-future)" marker-end="url(#arrow-future)"/><text x="1130" y="749" text-anchor="middle" class="edge-label" font-size="11" fill="#a79acd">Proposed rollout adapter / policy ↔ simulator</text><path d="M470 951H390" stroke="#b9a4fa" stroke-opacity=".6" stroke-dasharray="5 5" stroke-width="1.6" marker-end="url(#arrow-future)"/><text x="430" y="927" text-anchor="middle" class="edge-label" font-size="10" fill="#a79acd">Evaluate</text><g class="module" data-id="A" role="button" tabindex="0" aria-label="A: Frontend &amp; workspace, IMPLEMENTED, view details" transform="translate(30,120)"><rect class="outline" width="360" height="235" rx="12" fill="#102330" stroke="#68d9e5" stroke-opacity=".4" /><rect x="18" y="18" width="29" height="29" rx="6" fill="#68d9e5" fill-opacity=".12"/><text x="32.5" y="38" text-anchor="middle" font-size="16" font-weight="600" fill="#68d9e5">A</text><text x="59" y="38" font-size="20" font-weight="550" fill="#e5effa">Frontend &amp; workspace</text><text x="20" y="74" font-size="13" fill="#68d9e5">Owner workspace · review &amp; approval</text><line x1="20" y1="92" x2="340" y2="92" stroke="#68d9e5" stroke-opacity=".15"/><text x="20" y="117" class="mono" font-size="9.5" letter-spacing="1" fill="#728fa5">RESPONSIBILITY</text><text x="20" y="141" font-size="13" fill="#bfcedd" transform="translate(0,0)">Capture requests and display operating state</text><text x="20" y="141" font-size="13" fill="#bfcedd" transform="translate(0,24)">Review proposals, evidence and approvals</text><text x="20" y="211" font-size="11.5" fill="#8ca7bc">Nitro session + same-origin API proxy</text></g><g class="module" data-id="B" role="button" tabindex="0" aria-label="B: Agent runtime, IMPLEMENTED, view details" transform="translate(470,120)"><rect class="outline" width="360" height="235" rx="12" fill="#102330" stroke="#68d9e5" stroke-opacity=".4" /><rect x="18" y="18" width="29" height="29" rx="6" fill="#68d9e5" fill-opacity=".12"/><text x="32.5" y="38" text-anchor="middle" font-size="16" font-weight="600" fill="#68d9e5">B</text><text x="59" y="38" font-size="20" font-weight="550" fill="#e5effa">Agent runtime</text><text x="20" y="74" font-size="13" fill="#68d9e5">LangGraph · Hermes-style memory</text><line x1="20" y1="92" x2="340" y2="92" stroke="#68d9e5" stroke-opacity=".15"/><text x="20" y="117" class="mono" font-size="9.5" letter-spacing="1" fill="#728fa5">RESPONSIBILITY</text><text x="20" y="141" font-size="13" fill="#bfcedd" transform="translate(0,0)">Coordinate reasoning and business tool calls</text><text x="20" y="141" font-size="13" fill="#bfcedd" transform="translate(0,24)">Retain preferences, background and task skills</text><text x="20" y="211" font-size="11.5" fill="#8ca7bc">Agent worker · checkpoints · memory / skills</text></g><g class="module" data-id="C" role="button" tabindex="0" aria-label="C: Business backend, IMPLEMENTED, view details" transform="translate(910,120)"><rect class="outline" width="480" height="235" rx="12" fill="#102330" stroke="#68d9e5" stroke-opacity=".4" /><rect x="18" y="18" width="29" height="29" rx="6" fill="#68d9e5" fill-opacity=".12"/><text x="32.5" y="38" text-anchor="middle" font-size="16" font-weight="600" fill="#68d9e5">C</text><text x="59" y="38" font-size="20" font-weight="550" fill="#e5effa">Business backend</text><text x="20" y="74" font-size="13" fill="#68d9e5">Business rules · planning &amp; execution</text><line x1="20" y1="92" x2="460" y2="92" stroke="#68d9e5" stroke-opacity=".15"/><text x="20" y="117" class="mono" font-size="9.5" letter-spacing="1" fill="#728fa5">RESPONSIBILITY</text><text x="20" y="141" font-size="13" fill="#bfcedd" transform="translate(0,0)">Calculate inventory, cash and purchase options</text><text x="20" y="141" font-size="13" fill="#bfcedd" transform="translate(0,24)">Manage Mission → Plan → approval → Action</text><text x="20" y="211" font-size="11.5" fill="#8ca7bc">Business worker · durable jobs · event tracking</text></g><g class="module" data-id="D" role="button" tabindex="0" aria-label="D: Knowledge &amp; retrieval, IMPLEMENTED, view details" transform="translate(30,470)"><rect class="outline" width="360" height="230" rx="12" fill="#102330" stroke="#68d9e5" stroke-opacity=".4" /><rect x="18" y="18" width="29" height="29" rx="6" fill="#68d9e5" fill-opacity=".12"/><text x="32.5" y="38" text-anchor="middle" font-size="16" font-weight="600" fill="#68d9e5">D</text><text x="59" y="38" font-size="20" font-weight="550" fill="#e5effa">Knowledge &amp; retrieval</text><text x="20" y="74" font-size="13" fill="#68d9e5">RAG · policy &amp; supplier-term retrieval</text><line x1="20" y1="92" x2="340" y2="92" stroke="#68d9e5" stroke-opacity=".15"/><text x="20" y="117" class="mono" font-size="9.5" letter-spacing="1" fill="#728fa5">RESPONSIBILITY</text><text x="20" y="141" font-size="13" fill="#bfcedd" transform="translate(0,0)">Parse and index supplier documents</text><text x="20" y="141" font-size="13" fill="#bfcedd" transform="translate(0,24)">Retrieve versioned evidence for citations</text><text x="20" y="185" font-size="10.5" fill="#68d9e5">Source: quotation files + retrieval documents</text><text x="20" y="206" font-size="11.5" fill="#8ca7bc">Knowledge API / worker + delivery publisher</text></g><g class="module" data-id="E" role="button" tabindex="0" aria-label="E: Demand forecasting, IMPLEMENTED, view details" transform="translate(470,470)"><rect class="outline" width="360" height="230" rx="12" fill="#102330" stroke="#68d9e5" stroke-opacity=".4" /><rect x="18" y="18" width="29" height="29" rx="6" fill="#68d9e5" fill-opacity=".12"/><text x="32.5" y="38" text-anchor="middle" font-size="16" font-weight="600" fill="#68d9e5">E</text><text x="59" y="38" font-size="20" font-weight="550" fill="#e5effa">Demand forecasting</text><text x="20" y="74" font-size="13" fill="#68d9e5">LightGBM + neural-network ensemble</text><line x1="20" y1="92" x2="340" y2="92" stroke="#68d9e5" stroke-opacity=".15"/><text x="20" y="117" class="mono" font-size="9.5" letter-spacing="1" fill="#728fa5">RESPONSIBILITY</text><text x="20" y="141" font-size="13" fill="#bfcedd" transform="translate(0,0)">Estimate demand from sales history</text><text x="20" y="141" font-size="13" fill="#bfcedd" transform="translate(0,24)">Provide forecast evidence to the planner</text><text x="20" y="185" font-size="10.5" fill="#68d9e5">Source: public M5 sales histories</text><text x="20" y="206" font-size="11.5" fill="#8ca7bc">Independent ML HTTP API · frozen model bundle</text></g><g class="module" data-id="F" role="button" tabindex="0" aria-label="F: Business simulation, IMPLEMENTED, view details" transform="translate(910,470)"><rect class="outline" width="480" height="230" rx="12" fill="#102330" stroke="#68d9e5" stroke-opacity=".4" /><rect x="18" y="18" width="29" height="29" rx="6" fill="#68d9e5" fill-opacity=".12"/><text x="32.5" y="38" text-anchor="middle" font-size="16" font-weight="600" fill="#68d9e5">F</text><text x="59" y="38" font-size="20" font-weight="550" fill="#e5effa">Business simulation</text><text x="20" y="74" font-size="13" fill="#68d9e5">Scenario-driven business simulation</text><line x1="20" y1="92" x2="460" y2="92" stroke="#68d9e5" stroke-opacity=".15"/><text x="20" y="117" class="mono" font-size="9.5" letter-spacing="1" fill="#728fa5">RESPONSIBILITY</text><text x="20" y="141" font-size="13" fill="#bfcedd" transform="translate(0,0)">Generate sales, delivery and settlement events</text><text x="20" y="141" font-size="13" fill="#bfcedd" transform="translate(0,24)">Return purchase receipts for repeatable scenarios</text><text x="20" y="185" font-size="10.5" fill="#68d9e5">Source: authored business scenarios</text><text x="20" y="206" font-size="11.5" fill="#8ca7bc">SC01 / SANDBOX · independent simulation state</text></g><g class="module" data-id="G" role="button" tabindex="0" aria-label="G: Task evaluation, EXPERIMENTAL, view details" transform="translate(30,830)"><rect class="outline" width="360" height="245" rx="12" fill="#29221c" stroke="#efbd74" stroke-opacity=".4" /><rect x="18" y="18" width="29" height="29" rx="6" fill="#efbd74" fill-opacity=".12"/><text x="32.5" y="38" text-anchor="middle" font-size="16" font-weight="600" fill="#efbd74">G</text><text x="59" y="38" font-size="20" font-weight="550" fill="#e5effa">Task evaluation</text><text x="20" y="74" font-size="13" fill="#efbd74">Task outcomes · tool-use evaluation</text><line x1="20" y1="92" x2="340" y2="92" stroke="#efbd74" stroke-opacity=".15"/><text x="20" y="117" class="mono" font-size="9.5" letter-spacing="1" fill="#728fa5">RESPONSIBILITY</text><text x="20" y="141" font-size="13" fill="#bfcedd" transform="translate(0,0)">Validate task cases and score decisions</text><text x="20" y="141" font-size="13" fill="#bfcedd" transform="translate(0,24)">Check actual tool execution and model usage</text><text x="20" y="221" font-size="11.5" fill="#8ca7bc">Independent posttraining evaluation harness</text></g><g class="module" data-id="H" role="button" tabindex="0" aria-label="H: Learning &amp; orchestration extensions, PROPOSED, view details" transform="translate(470,830)"><rect class="outline" width="920" height="245" rx="12" fill="#211e35" stroke="#b9a4fa" stroke-opacity=".4" stroke-dasharray="6 5"/><rect x="18" y="18" width="29" height="29" rx="6" fill="#b9a4fa" fill-opacity=".12"/><text x="32.5" y="38" text-anchor="middle" font-size="16" font-weight="600" fill="#b9a4fa">H</text><text x="59" y="38" font-size="20" font-weight="550" fill="#e5effa">Learning &amp; orchestration extensions</text><text x="20" y="74" font-size="13" fill="#b9a4fa">Candidate technologies · not implemented</text><line x1="20" y1="92" x2="900" y2="92" stroke="#b9a4fa" stroke-opacity=".15"/><text x="20" y="124" font-size="15" font-weight="550" fill="#e5dff5">Task SFT &amp; serving</text><text x="20" y="153" font-size="12.5" fill="#b9a4fa">Qwen3-8B · LoRA · vLLM</text><text x="20" y="181" font-size="11.5" fill="#a99cbd">Verified examples → task model</text><line x1="307" x2="307" y1="110" y2="204" stroke="#b9a4fa" stroke-opacity=".16"/><text x="320" y="124" font-size="15" font-weight="550" fill="#e5dff5">Multi-agent coordination</text><text x="320" y="153" font-size="12.5" fill="#b9a4fa">LangGraph supervisor + subgraphs</text><text x="320" y="181" font-size="11.5" fill="#a99cbd">Delegate → share state → synthesize</text><line x1="607" x2="607" y1="110" y2="204" stroke="#b9a4fa" stroke-opacity=".16"/><text x="620" y="124" font-size="15" font-weight="550" fill="#e5dff5">Reinforcement learning</text><text x="620" y="153" font-size="12.5" fill="#b9a4fa">Simulator rollouts · GRPO/PPO*</text><text x="620" y="181" font-size="11.5" fill="#a99cbd">Feedback → reward → policy update</text><text x="20" y="225" font-size="10.5" fill="#8f82a5">Candidate technologies. *RL algorithms require selection and validation; these components are not implemented.</text></g><text x="30" y="1104" fill="#627e99" font-size="10">Logical modules / current application + independent evaluation + proposed research extensions</text><rect y="1120" width="1440" height="70" fill="#0b121c"/><text x="30" y="1147" font-size="16" fill="#a5bbd0">ShopSteward / Core technologies and technical modules</text><text x="30" y="1170" font-size="12" fill="#a5bbd0">Cyan: implemented | Amber: experimental | Violet / dashed: proposed</text></svg>